<?xml version="1.0" encoding="UTF-8" standalone="no"?>
<svg width="445px" height="503px" viewBox="0 0 445 503" version="1.1" xmlns="http://www.w3.org/2000/svg" xmlns:xlink="http://www.w3.org/1999/xlink" xmlns:sketch="http://www.bohemiancoding.com/sketch/ns">
    <!-- Generator: Sketch 3.3.3 (12081) - http://www.bohemiancoding.com/sketch -->
    <title>catapultstudio_logo_large</title>
    <desc>Created with Sketch.</desc>
    <defs>
        <linearGradient x1="50%" y1="95.9764665%" x2="50%" y2="41.8542545%" id="linearGradient-1">
            <stop stop-color="#02DFDF" offset="0%"></stop>
            <stop stop-color="#59D4D9" stop-opacity="0" offset="100%"></stop>
        </linearGradient>
    </defs>
    <g id="Page-1" stroke="none" stroke-width="1" fill="none" fill-rule="evenodd" sketch:type="MSPage">
        <g id="Artboard-1" sketch:type="MSArtboardGroup" transform="translate(-674.000000, -44.000000)">
            <g id="catapultstudio_logo_large" sketch:type="MSLayerGroup" transform="translate(674.000000, 45.000000)">
                <path d="M312.973764,256.757126 C282.973574,288.711733 237.232633,303.375182 192.259593,291.246889 C135.732949,276.030352 99.1861674,223.726869 102.202989,168.61662 L40.8878547,164.784424 C36.7808135,248.589305 91.6201408,327.217718 176.930809,350.645925 C244.147407,368.244585 312.816281,346.114709 357.044017,298.911281 L312.973764,256.757126 C312.490655,257.075631 274.651805,312.323966 274.651805,312.323966 L312.973764,256.757126 Z" id="Fill-1" fill="#0A0B09" sketch:type="MSShapeGroup"></path>
                <g id="Group" transform="translate(0.433962, 392.800080)" sketch:type="MSShapeGroup">
                    <path d="M0,28.7414693 C0,48.2810092 11.8993559,57.4829386 26.8253713,57.4829386 C33.0429997,57.4829386 39.3996588,54.8038958 44.0702529,49.8185468 L36.4058611,40.238057 C33.7213017,43.1947107 30.6592525,45.0972193 26.8253713,45.9863509 C19.3025382,45.0972193 14.5544239,39.2149733 15.3287836,28.7414693 C14.5544239,18.4620988 20.1552608,12.4051326 26.8253713,11.4965877 C30.3297915,12.4051326 32.7135387,13.7834807 34.4897631,15.3287836 L44.0702529,7.66439181 C39.4965591,3.35851009 33.5468812,0 26.8253713,0 C12.4032374,0 0,10.3861439 0,28.7414693" id="Fill-3" fill="#0A0B09"></path>
                    <path d="M105.385387,55.5668406 L88.1405058,0 L72.8117222,0 L55.5668406,55.5668406 L70.8956242,55.5668406 L72.8117222,44.0702529 L88.1405058,44.0702529 L90.0566038,55.5668406 L105.385387,55.5668406 Z" id="Fill-4" fill="#0A0B09"></path>
                    <path d="M78.5660377,11.1999197 L80.5660377,11.1999197 L84.5660377,32.1999197 L74.5660377,32.1999197 L78.5660377,11.1999197 Z" id="Path-46" fill="#FFFFFF"></path>
                    <path d="M132.210759,55.5668406 L145.623444,55.5668406 L145.623444,11.4965877 L160.952228,11.4965877 L160.952228,0 L116.881975,0 L116.881975,11.4965877 L132.210759,11.4965877 L132.210759,55.5668406" id="Fill-5" fill="#0A0B09"></path>
                    <path d="M206.938579,55.5668406 L222.267363,55.5668406 L205.022481,0 L189.693697,0 L172.448816,55.5668406 L187.777599,55.5668406 L189.693697,44.0702529 L205.022481,44.0702529 L206.938579,55.5668406 L206.938579,55.5668406 Z" id="Fill-6" fill="#0A0B09"></path>
                    <path d="M195.566038,11.1999197 L197.566038,11.1999197 L201.566038,32.1999197 L191.566038,32.1999197 L195.566038,11.1999197 Z" id="Path-46-Copy" fill="#FFFFFF"></path>
                    <path d="M237.596146,55.5668406 L251.008832,55.5668406 L251.008832,38.3219591 L258.673224,38.3219591 C269.794866,37.7547411 279.750301,31.9773252 279.750301,19.1609795 C279.750301,4.35705452 270.117233,0 258.673224,0 L237.596146,0 L237.596146,55.5668406 L237.596146,55.5668406 Z M251.008832,26.8253713 L251.008832,11.4965877 L256.757126,11.4965877 C263.134887,11.4965877 266.337615,13.4618164 266.337615,19.1609795 C266.337615,23.7989192 263.477317,26.8253713 256.757126,26.8253713 L251.008832,26.8253713 L251.008832,26.8253713 Z" id="Fill-7" fill="#0A0B09"></path>
                    <path d="M291.246889,28.7414693 C291.246889,47.0400083 298.48848,55.5668406 314.240064,55.5668406 C328.545784,55.5668406 335.317142,47.0400083 335.317142,28.7414693 L335.317142,0 L321.904456,0 L321.904456,30.6575672 C321.94371,39.8994983 319.272786,43.4507626 314.240064,44.0702529 C307.893143,43.4507626 305.391503,39.8994983 304.659574,30.6575672 L304.659574,0 L291.246889,0 L291.246889,28.7414693" id="Fill-8" fill="#0A0B09"></path>
                    <path d="M354.478121,55.5668406 L388.967884,55.5668406 L388.967884,44.0702529 L367.890807,44.0702529 L367.890807,0 L354.478121,0 L354.478121,55.5668406" id="Fill-9" fill="#0A0B09"></path>
                    <path d="M415.793256,55.5668406 L429.205941,55.5668406 L429.205941,11.4965877 L444.534725,11.4965877 L444.534725,0 L400.464472,0 L400.464472,11.4965877 L415.793256,11.4965877 L415.793256,55.5668406" id="Fill-10" fill="#0A0B09"></path>
                </g>
                <path d="M124.980329,170.532718 C124.980329,227.015409 170.019213,272.085909 226.533521,272.085909 C281.13173,272.085909 326.170614,227.015409 326.170614,170.532718 C326.170614,143.105529 314.599587,117.569401 295.513047,99.6370935 C307.032441,126.667602 269.273343,135.421754 249.526696,113.049779 C206.992861,60.4380502 254.024108,6.57517055 266.771578,0 C234.809305,2.84796631 186.322101,25.0965085 178.631072,111.133681 C176.034615,134.160239 182.892939,164.092556 163.302288,162.868326 C136.321469,163.194204 156.225935,108.853478 169.050582,88.1405058 C142.394343,106.330447 124.980329,136.855294 124.980329,170.532718" id="Fill-12" fill="#B94FFB" sketch:type="MSShapeGroup"></path>
                <path d="M124.980329,170.532718 C124.980329,227.015409 170.019213,272.085909 226.533521,272.085909 C281.13173,272.085909 326.170614,227.015409 326.170614,170.532718 C326.170614,143.105529 314.599587,117.569401 295.513047,99.6370935 C307.032441,126.667602 269.273343,135.421754 249.526696,113.049779 C206.992861,60.4380502 254.024108,6.57517055 266.771578,0 C234.809305,2.84796631 186.322101,25.0965085 178.631072,111.133681 C176.034615,134.160239 182.892939,164.092556 163.302288,162.868326 C136.321469,163.194204 156.225935,108.853478 169.050582,88.1405058 C142.394343,106.330447 124.980329,136.855294 124.980329,170.532718" id="Fill-12-Copy" stroke="#FFFFFF" fill="url(#linearGradient-1)" sketch:type="MSShapeGroup"></path>
                <path d="M312.757929,256.757126 L377.905259,316.156162 L337.667202,356.394219 L285.932557,312.323966 L312.757929,256.757126 Z" id="Fill-13" fill="#0A0B09" sketch:type="MSShapeGroup"></path>
                <path d="M4.95796226,495.603906 C5.63396564,496.773912 6.51145687,497.644903 7.59046226,498.216906 C8.66946766,498.788909 9.89795537,499.074906 11.2759623,499.074906 C12.1339666,499.074906 12.9399585,498.944907 13.6939623,498.684906 C14.447966,498.424904 15.1044595,498.060908 15.6634623,497.592906 C16.2224651,497.124903 16.6644606,496.559409 16.9894623,495.896406 C17.3144639,495.233402 17.4769623,494.48591 17.4769623,493.653906 C17.4769623,492.691901 17.2754643,491.898909 16.8724623,491.274906 C16.4694602,490.650903 15.9299656,490.137408 15.2539623,489.734406 C14.5779589,489.331404 13.8174665,488.986907 12.9724623,488.700906 C12.127458,488.414904 11.2564667,488.128907 10.3594623,487.842906 C9.46245778,487.556904 8.59146649,487.231907 7.74646226,486.867906 C6.90145804,486.503904 6.14096564,486.029409 5.46496226,485.444406 C4.78895888,484.859403 4.24946428,484.12491 3.84646226,483.240906 C3.44346025,482.356901 3.24196226,481.264912 3.24196226,479.964906 C3.24196226,478.7429 3.48245986,477.65741 3.96346226,476.708406 C4.44446467,475.759401 5.09445817,474.966409 5.91346226,474.329406 C6.73246636,473.692402 7.67495693,473.211407 8.74096226,472.886406 C9.80696759,472.561404 10.9249564,472.398906 12.0949623,472.398906 C13.6029698,472.398906 15.0004558,472.665403 16.2874623,473.198406 C17.5744687,473.731408 18.6859576,474.621899 19.6219623,475.869906 L17.3989623,477.468906 C16.748959,476.558901 15.9884666,475.876408 15.1174623,475.421406 C14.2464579,474.966403 13.2129682,474.738906 12.0169623,474.738906 C11.1849581,474.738906 10.391966,474.849405 9.63796226,475.070406 C8.88395849,475.291407 8.22746506,475.616404 7.66846226,476.045406 C7.10945947,476.474408 6.66096395,477.013902 6.32296226,477.663906 C5.98496057,478.313909 5.81596226,479.080901 5.81596226,479.964906 C5.81596226,481.342913 6.16695875,482.402402 6.86896226,483.143406 C7.57096577,483.884409 8.448457,484.469404 9.50146226,484.898406 C10.5544675,485.327408 11.6984561,485.704404 12.9334623,486.029406 C14.1684684,486.354407 15.312457,486.789903 16.3654623,487.335906 C17.4184675,487.881908 18.2959588,488.642401 18.9979623,489.617406 C19.6999658,490.592411 20.0509623,491.937897 20.0509623,493.653906 C20.0509623,494.901912 19.8169646,496.006901 19.3489623,496.968906 C18.8809599,497.93091 18.2504662,498.743402 17.4574623,499.406406 C16.6644583,500.069409 15.7479675,500.569904 14.7079623,500.907906 C13.6679571,501.245907 12.5889679,501.414906 11.4709623,501.414906 C9.65095316,501.414906 7.97396993,501.096409 6.43996226,500.459406 C4.90595459,499.822402 3.59296772,498.749913 2.50096226,497.241906 L4.95796226,495.603906 Z M91.7239592,475.440906 L82.2859592,475.440906 L82.2859592,473.100906 L103.735959,473.100906 L103.735959,475.440906 L94.2979592,475.440906 L94.2979592,500.712906 L91.7239592,500.712906 L91.7239592,475.440906 Z M187.303956,490.143906 C187.303956,491.625913 187.134958,493.042899 186.796956,494.394906 C186.458954,495.746912 185.89346,496.9429 185.100456,497.982906 C184.307452,499.022911 183.267463,499.854903 181.980456,500.478906 C180.69345,501.102909 179.113966,501.414906 177.241956,501.414906 C175.369947,501.414906 173.790463,501.102909 172.503456,500.478906 C171.21645,499.854903 170.17646,499.022911 169.383456,497.982906 C168.590452,496.9429 168.024958,495.746912 167.686956,494.394906 C167.348954,493.042899 167.179956,491.625913 167.179956,490.143906 L167.179956,473.100906 L169.753956,473.100906 L169.753956,489.480906 C169.753956,490.468911 169.844955,491.5219 170.026956,492.639906 C170.208957,493.757911 170.566453,494.797901 171.099456,495.759906 C171.632459,496.72191 172.386451,497.514903 173.361456,498.138906 C174.336461,498.762909 175.629948,499.074906 177.241956,499.074906 C178.853964,499.074906 180.147451,498.762909 181.122456,498.138906 C182.097461,497.514903 182.851453,496.72191 183.384456,495.759906 C183.917459,494.797901 184.274955,493.757911 184.456956,492.639906 C184.638957,491.5219 184.729956,490.468911 184.729956,489.480906 L184.729956,473.100906 L187.303956,473.100906 L187.303956,490.143906 Z M253.711953,473.100906 L262.252953,473.100906 C264.644965,473.100906 266.672945,473.393403 268.336953,473.978406 C270.000961,474.563409 271.385448,475.310901 272.490453,476.220906 C273.595459,477.13091 274.46645,478.1384 275.103453,479.243406 C275.740456,480.348411 276.208452,481.407901 276.507453,482.421906 C276.806455,483.435911 276.994953,484.352402 277.072953,485.171406 C277.150953,485.99041 277.189953,486.568904 277.189953,486.906906 C277.189953,487.244907 277.150953,487.823402 277.072953,488.642406 C276.994953,489.46141 276.806455,490.377901 276.507453,491.391906 C276.208452,492.405911 275.740456,493.4654 275.103453,494.570406 C274.46645,495.675411 273.595459,496.682901 272.490453,497.592906 C271.385448,498.50291 270.000961,499.250403 268.336953,499.835406 C266.672945,500.420409 264.644965,500.712906 262.252953,500.712906 L253.711953,500.712906 L253.711953,473.100906 Z M256.285953,498.372906 L261.589953,498.372906 C263.409962,498.372906 265.112945,498.145408 266.698953,497.690406 C268.284961,497.235403 269.662947,496.53991 270.832953,495.603906 C272.002959,494.667901 272.92595,493.478413 273.601953,492.035406 C274.277956,490.592398 274.615953,488.882916 274.615953,486.906906 C274.615953,484.930896 274.277956,483.221413 273.601953,481.778406 C272.92595,480.335398 272.002959,479.14591 270.832953,478.209906 C269.662947,477.273901 268.284961,476.578408 266.698953,476.123406 C265.112945,475.668403 263.409962,475.440906 261.589953,475.440906 L256.285953,475.440906 L256.285953,498.372906 Z M342.66195,473.100906 L345.23595,473.100906 L345.23595,500.712906 L342.66195,500.712906 L342.66195,473.100906 Z M410.707947,486.906906 C410.707947,484.800895 411.058943,482.863915 411.760947,481.095906 C412.462951,479.327897 413.437941,477.800412 414.685947,476.513406 C415.933953,475.226399 417.435438,474.218909 419.190447,473.490906 C420.945456,472.762902 422.875936,472.398906 424.981947,472.398906 C427.087958,472.398906 429.018438,472.762902 430.773447,473.490906 C432.528456,474.218909 434.029941,475.226399 435.277947,476.513406 C436.525953,477.800412 437.500943,479.327897 438.202947,481.095906 C438.904951,482.863915 439.255947,484.800895 439.255947,486.906906 C439.255947,489.012916 438.904951,490.956397 438.202947,492.737406 C437.500943,494.518415 436.525953,496.052399 435.277947,497.339406 C434.029941,498.626412 432.528456,499.627402 430.773447,500.342406 C429.018438,501.057409 427.087958,501.414906 424.981947,501.414906 C422.875936,501.414906 420.945456,501.057409 419.190447,500.342406 C417.435438,499.627402 415.933953,498.626412 414.685947,497.339406 C413.437941,496.052399 412.462951,494.518415 411.760947,492.737406 C411.058943,490.956397 410.707947,489.012916 410.707947,486.906906 L410.707947,486.906906 Z M413.281947,486.906906 C413.281947,488.622914 413.554944,490.221898 414.100947,491.703906 C414.64695,493.185913 415.426942,494.4729 416.440947,495.564906 C417.454952,496.656911 418.68344,497.514903 420.126447,498.138906 C421.569454,498.762909 423.187938,499.074906 424.981947,499.074906 C426.775956,499.074906 428.39444,498.762909 429.837447,498.138906 C431.280454,497.514903 432.508942,496.656911 433.522947,495.564906 C434.536952,494.4729 435.316944,493.185913 435.862947,491.703906 C436.40895,490.221898 436.681947,488.622914 436.681947,486.906906 C436.681947,485.190897 436.40895,483.591913 435.862947,482.109906 C435.316944,480.627898 434.536952,479.340911 433.522947,478.248906 C432.508942,477.1569 431.280454,476.298909 429.837447,475.674906 C428.39444,475.050903 426.775956,474.738906 424.981947,474.738906 C423.187938,474.738906 421.569454,475.050903 420.126447,475.674906 C418.68344,476.298909 417.454952,477.1569 416.440947,478.248906 C415.426942,479.340911 414.64695,480.627898 414.100947,482.109906 C413.554944,483.591913 413.281947,485.190897 413.281947,486.906906 L413.281947,486.906906 Z" id="STUDIO" fill="#000000" sketch:type="MSShapeGroup"></path>
            </g>
        </g>
    </g>
</svg>