<?xml version="1.0" encoding="UTF-8" standalone="no"?>
<svg width="113px" height="120px" viewBox="0 0 113 120" version="1.1" xmlns="http://www.w3.org/2000/svg" xmlns:xlink="http://www.w3.org/1999/xlink" xmlns:sketch="http://www.bohemiancoding.com/sketch/ns">
    <!-- Generator: Sketch 3.3.3 (12081) - http://www.bohemiancoding.com/sketch -->
    <title>catapultstudio_mark</title>
    <desc>Created with Sketch.</desc>
    <defs>
        <linearGradient x1="50%" y1="95.9764665%" x2="50%" y2="41.8542545%" id="linearGradient-1">
            <stop stop-color="#02DFDF" offset="0%"></stop>
            <stop stop-color="#59D4D9" stop-opacity="0" offset="100%"></stop>
        </linearGradient>
    </defs>
    <g id="Page-1" stroke="none" stroke-width="1" fill="none" fill-rule="evenodd" sketch:type="MSPage">
        <g id="Artboard-1" sketch:type="MSArtboardGroup" transform="translate(-443.000000, -518.000000)">
            <g id="catapultstudio_mark" sketch:type="MSLayerGroup" transform="translate(443.000000, 519.000000)">
                <path d="M90.9912547,85.5857086 C80.9911913,96.2372443 65.744211,101.125061 50.7531977,97.0822963 C31.9109831,92.0101172 19.7287225,74.5756231 20.7343297,56.2055399 L0.29595158,54.9281413 C-1.07306215,82.8631015 17.2067136,109.072573 45.6436031,116.881975 C68.0491356,122.748195 90.9387605,115.37157 105.681339,99.6370935 L90.9912547,85.5857086 C90.8302183,85.691877 78.2172683,104.107989 78.2172683,104.107989 L90.9912547,85.5857086 Z" id="Fill-1" fill="#0A0B09" sketch:type="MSShapeGroup"></path>
                <path d="M28.3267764,56.8442393 C28.3267764,75.6718029 43.3397377,90.6953031 62.1778402,90.6953031 C80.3772434,90.6953031 95.3902047,75.6718029 95.3902047,56.8442393 C95.3902047,47.7018429 91.5331955,39.1898004 85.1710157,33.2123645 C89.0108137,42.2225341 76.4244475,45.1405846 69.842232,37.6832597 C55.664287,20.1460167 71.3413692,2.19172352 75.5905259,0 C64.936435,0.949322105 48.7740338,8.36550284 46.2103573,37.0445604 C45.3448717,44.7200796 47.6309798,54.6975186 41.1007627,54.289442 C32.1071563,54.398068 38.7419784,36.2844925 43.0168607,29.3801686 C34.1314475,35.4434823 28.3267764,45.6184313 28.3267764,56.8442393" id="Fill-12" fill="#B94FFB" sketch:type="MSShapeGroup"></path>
                <path d="M28.3267764,56.8442393 C28.3267764,75.6718029 43.3397377,90.6953031 62.1778402,90.6953031 C80.3772434,90.6953031 95.3902047,75.6718029 95.3902047,56.8442393 C95.3902047,47.7018429 91.5331955,39.1898004 85.1710157,33.2123645 C89.0108137,42.2225341 76.4244475,45.1405846 69.842232,37.6832597 C55.664287,20.1460167 71.3413692,2.19172352 75.5905259,0 C64.936435,0.949322105 48.7740338,8.36550284 46.2103573,37.0445604 C45.3448717,44.7200796 47.6309798,54.6975186 41.1007627,54.289442 C32.1071563,54.398068 38.7419784,36.2844925 43.0168607,29.3801686 C34.1314475,35.4434823 28.3267764,45.6184313 28.3267764,56.8442393" id="Fill-12-Copy" stroke="#FFFFFF" fill="url(#linearGradient-1)" sketch:type="MSShapeGroup"></path>
                <path d="M90.9193095,85.5857086 L112.635086,105.385387 L99.2224006,118.798073 L81.9775191,104.107989 L90.9193095,85.5857086 Z" id="Fill-13" fill="#0A0B09" sketch:type="MSShapeGroup"></path>
            </g>
        </g>
    </g>
</svg>